name rise45.9887peak57.8056fall74.9286.mot
datacolumns 19
datarows 12
range 9.26663700000000 9.28497000000000
endheader
time	ground_force1_vx	ground_force1_vy	ground_force1_vz	ground_force1_px	ground_force1_py	ground_force1_pz	ground_force2_vx	ground_force2_vy	ground_force2_vz	ground_force2_px	ground_force2_py	ground_force2_pz	ground_torque1_x	ground_torque1_y	ground_torque1_z	ground_torque2_x	ground_torque2_y	ground_torque2_z	
9.26663700000000	64.03402900000000	787.41520400000002	47.06791700000000	0.35084000000000	0.00000000000000	0.08165900000000	0.00000000000000	0.00000000000000	0.00000000000000	0.00000000000000	0.00000000000000	0.00000000000000	0.00000000000000	22.35289200000000	0.00000000000000	0.00000000000000	0.00000000000000	0.00000000000000	
9.26830100000000	63.32630200000000	789.33766300000002	47.12445500000000	0.34992900000000	0.00000000000000	0.08167900000000	0.00000000000000	0.00000000000000	0.00000000000000	0.00000000000000	0.00000000000000	0.00000000000000	0.00000000000000	22.38011600000000	0.00000000000000	0.00000000000000	0.00000000000000	0.00000000000000	
9.26996200000000	62.61913300000000	791.10895100000005	47.18111000000000	0.34903200000000	0.00000000000000	0.08170100000000	0.00000000000000	0.00000000000000	0.00000000000000	0.00000000000000	0.00000000000000	0.00000000000000	0.00000000000000	22.40876400000000	0.00000000000000	0.00000000000000	0.00000000000000	0.00000000000000	
9.27165900000000	61.91304300000000	792.72882800000002	47.23773500000000	0.34814900000000	0.00000000000000	0.08172300000000	0.00000000000000	0.00000000000000	0.00000000000000	0.00000000000000	0.00000000000000	0.00000000000000	0.00000000000000	22.43872700000000	0.00000000000000	0.00000000000000	0.00000000000000	0.00000000000000	
9.27329600000000	61.20849800000000	794.19726400000002	47.29412700000000	0.34728000000000	0.00000000000000	0.08174600000000	0.00000000000000	0.00000000000000	0.00000000000000	0.00000000000000	0.00000000000000	0.00000000000000	0.00000000000000	22.46985700000000	0.00000000000000	0.00000000000000	0.00000000000000	0.00000000000000	
9.27496900000000	60.50590700000000	795.51445000000001	47.35003400000000	0.34642200000000	0.00000000000000	0.08177000000000	0.00000000000000	0.00000000000000	0.00000000000000	0.00000000000000	0.00000000000000	0.00000000000000	0.00000000000000	22.50197800000000	0.00000000000000	0.00000000000000	0.00000000000000	0.00000000000000	
9.27663100000000	59.80563400000000	796.68079699999998	47.40516000000000	0.34557700000000	0.00000000000000	0.08179400000000	0.00000000000000	0.00000000000000	0.00000000000000	0.00000000000000	0.00000000000000	0.00000000000000	0.00000000000000	22.53488200000000	0.00000000000000	0.00000000000000	0.00000000000000	0.00000000000000	
9.27830200000000	59.10798900000000	797.69695000000002	47.45916900000000	0.34474100000000	0.00000000000000	0.08182000000000	0.00000000000000	0.00000000000000	0.00000000000000	0.00000000000000	0.00000000000000	0.00000000000000	0.00000000000000	22.56833300000000	0.00000000000000	0.00000000000000	0.00000000000000	0.00000000000000	
9.27998500000000	58.41324200000000	798.56378600000005	47.51168800000000	0.34391500000000	0.00000000000000	0.08184600000000	0.00000000000000	0.00000000000000	0.00000000000000	0.00000000000000	0.00000000000000	0.00000000000000	0.00000000000000	22.60207400000000	0.00000000000000	0.00000000000000	0.00000000000000	0.00000000000000	
9.28163300000000	57.72161900000000	799.28242299999999	47.56231600000000	0.34309700000000	0.00000000000000	0.08187400000000	0.00000000000000	0.00000000000000	0.00000000000000	0.00000000000000	0.00000000000000	0.00000000000000	0.00000000000000	22.63582600000000	0.00000000000000	0.00000000000000	0.00000000000000	0.00000000000000	
9.28329700000000	57.03330700000000	799.85421699999995	47.61062800000000	0.34228600000000	0.00000000000000	0.08190200000000	0.00000000000000	0.00000000000000	0.00000000000000	0.00000000000000	0.00000000000000	0.00000000000000	0.00000000000000	22.66929500000000	0.00000000000000	0.00000000000000	0.00000000000000	0.00000000000000	
9.28497000000000	56.34845800000000	800.28076899999996	47.65617800000000	0.34148100000000	0.00000000000000	0.08193200000000	0.00000000000000	0.00000000000000	0.00000000000000	0.00000000000000	0.00000000000000	0.00000000000000	0.00000000000000	22.70217200000000	0.00000000000000	0.00000000000000	0.00000000000000	0.00000000000000	
